<svg xmlns="http://www.w3.org/2000/svg" height="1024" preserveAspectRatio="none" style="display: block;" version="1.1" viewBox="537.4 539.4 969.3 969.3" width="1024">

<path d="M 828.413 1447.38 C 648.59 1363.95 541.428 1175.7 561.5 978.482 C 581.572 781.268 724.463 618.462 917.407 572.975 C 1110.35 527.488 1310.92 609.321 1416.97 776.801 C 1523.02 944.282 1511.23 1160.58 1387.61 1315.54 C 1349.1 1363.82 1301.35 1403.95 1247.16 1433.57 C 1178.68 1471.01 1101.88 1490.61 1023.84 1490.56 C 956.335 1490.52 889.648 1475.79 828.413 1447.38 z" fill="rgb(5,1,1)" transform="translate(0,0)"></path>
<path d="M 827.463 1156.24 C 830.375 1154.42 878.574 1155.49 882.74 1158.13 C 884.083 1168.09 882.763 1175.97 883.165 1185.2 C 884.109 1206.83 881.638 1241.38 884.327 1262.16 C 885.447 1237.75 884.238 1212.16 884.655 1187.65 C 884.784 1180.08 884.148 1164.32 885.123 1157.26 C 931.573 1156.71 978.257 1157.72 1024.82 1157 C 1025.1 1176.86 1025.76 1206.68 1024.73 1226.09 L 1024.72 1490.47 L 1037.76 1490.37 C 1034.14 1490.43 1028.37 1489.73 1024.56 1489.42 L 1023.84 1490.56 C 956.335 1490.52 889.648 1475.79 828.413 1447.38 L 829.251 1445.26 L 827.777 1444.44 C 826.986 1437.53 827.283 1428.58 827.32 1421.45 C 825.53 1340.51 826.803 1252.14 827.424 1170.78 L 827.463 1156.24 z" fill="rgb(59,13,30)" transform="translate(0,0)"></path>
<path d="M 1024.82 1157 C 1025.1 1176.86 1025.76 1206.68 1024.73 1226.09 C 1020.64 1226.12 1015.09 1226.57 1011.04 1227.05 C 984.14 1230.06 958.751 1241.02 938.116 1258.54 C 906.777 1285.01 888.861 1322.63 889.581 1363.46 C 889.728 1371.84 889.564 1380.37 889.572 1388.77 C 889.542 1408.68 889.624 1428.6 889.821 1448.51 C 889.909 1454.12 891.19 1465.14 888.153 1468.99 L 886.653 1468.93 C 884.094 1464.38 885.45 1397.23 885.485 1386.57 L 885.688 1228.06 C 885.687 1207.97 886.632 1177.68 885.222 1158.48 L 885.123 1157.26 C 931.573 1156.71 978.257 1157.72 1024.82 1157 z" fill="rgb(165,164,139)" transform="translate(0,0)"></path>
<path d="M 827.424 1170.78 C 829.333 1165.88 826.92 1160.19 828.977 1156.82 L 829.714 1156.46 C 829.087 1155.58 831.64 1422.11 828.75 1439.55 C 828.64 1440.23 828.517 1440.92 828.379 1441.6 C 828.287 1436.04 828.435 1426.54 827.32 1421.45 C 825.53 1340.51 826.803 1252.14 827.424 1170.78 z" fill="rgb(5,1,1)" transform="translate(0,0)"></path>
<path d="M 725.824 1157.39 C 747.926 1157.22 770.03 1157.16 792.133 1157.22 C 800.812 1157.21 819.601 1157.63 827.463 1156.24 L 827.424 1170.78 C 826.803 1252.14 825.53 1340.51 827.32 1421.45 C 827.283 1428.58 826.986 1437.53 827.777 1444.44 C 757.113 1409.22 703.756 1365.45 656.695 1301.72 C 664.906 1286.89 673.582 1267.84 680.989 1252.41 L 725.824 1157.39 z" fill="rgb(165,164,139)" transform="translate(0,0)"></path>
<path d="M 1229.38 1156.9 C 1255.41 1156.66 1292.99 1155.26 1318.23 1156.82 C 1343.61 1204.01 1365.44 1254.51 1391.33 1301.54 C 1393.42 1305.34 1386.21 1308.04 1387.61 1315.54 C 1349.1 1363.82 1301.35 1403.95 1247.16 1433.57 C 1246.83 1433.14 1246.5 1432.72 1246.18 1432.29 C 1242.03 1434.65 1233.26 1441.13 1229.09 1439.14 C 1227.71 1432.38 1228.65 1413.15 1228.8 1405.34 C 1229.01 1391.75 1229.07 1378.15 1228.98 1364.56 C 1228.89 1296.56 1227.73 1224.68 1229.38 1156.9 z" fill="rgb(59,13,30)" transform="translate(0,0)"></path>
<path d="M 1024.73 1226.09 C 1067.03 1229.77 1100.4 1241.78 1128.38 1275.53 C 1161.05 1314.95 1159.84 1349.45 1159.85 1396.41 C 1159.68 1420.58 1159.79 1444.76 1160.21 1468.93 C 1119.85 1482.54 1080.18 1488.77 1037.76 1490.37 L 1024.72 1490.47 L 1024.73 1226.09 z" fill="rgb(165,164,139)" transform="translate(0,0)"></path>
<path d="M 1024.82 1157 C 1072.64 1156.31 1120.48 1156.25 1168.3 1156.83 C 1167.09 1195.19 1168.32 1235.62 1167.9 1274.24 C 1167.52 1309.69 1166.84 1345.22 1166.97 1380.62 L 1167.23 1441.13 C 1167.27 1448.11 1169.43 1463.22 1164.83 1467.55 L 1160.21 1468.93 C 1159.79 1444.76 1159.68 1420.58 1159.85 1396.41 C 1159.84 1349.45 1161.05 1314.95 1128.38 1275.53 C 1100.4 1241.78 1067.03 1229.77 1024.73 1226.09 C 1025.76 1206.68 1025.1 1176.86 1024.82 1157 z" fill="rgb(59,13,30)" transform="translate(0,0)"></path>
<path d="M 996.354 562.417 C 1096.57 556.655 1195.94 583.761 1279.35 639.617 C 1378.48 705.457 1449.79 815.104 1473.16 931.539 C 1493.86 1036.8 1478.42 1145.96 1429.35 1241.35 C 1417.87 1263.71 1406.85 1280.18 1393 1301 C 1386.92 1290.72 1378.47 1271.42 1372.82 1260.19 C 1355.62 1226.01 1339.76 1190.78 1321.94 1156.93 L 1336.94 1157 C 1339.68 1142.72 1342.01 1127.45 1344.47 1113.05 C 1312.46 1113.52 1280.54 1109.48 1249.66 1101.05 C 1159.51 1076.3 1085.82 1014.84 1040.1 934.011 C 1034.45 923.613 1030.19 913.966 1025.34 903.187 C 1019.66 912.488 1015.28 925.539 1009.79 935.61 C 996.474 960.074 978.185 984.553 958.857 1004.6 C 893.256 1071.53 804.113 1110.21 710.418 1112.38 C 714.66 1125.29 718.665 1143.19 722.129 1156.73 C 709.246 1184.59 696.102 1212.32 682.698 1239.93 C 674.073 1258.15 663.907 1280.99 654.102 1298.08 C 648.004 1291.37 636.973 1273.25 632.077 1265.12 C 594.356 1202.16 572.206 1131.1 567.467 1057.86 C 551.437 801.702 737.246 577.795 996.354 562.417 z" fill="rgb(179,79,46)" transform="translate(0,0)"></path>
<path d="M 1022.96 601.252 C 1024.08 601.839 1025.5 602.563 1025.75 604.042 C 1030.85 634.664 1035.61 668.533 1052.42 695.31 C 1073.73 729.266 1119.31 734.597 1155.23 742.026 C 1126.34 749.474 1095.59 749.704 1068.31 770.266 C 1038.33 792.863 1030.59 844.153 1026.12 879.778 C 1021.23 880.154 1021.82 872.251 1021.41 868.423 C 1011.48 775.666 981.537 756.045 894.28 742.591 C 921.876 734.28 951.089 734.915 977.748 714.997 C 1012.51 689.027 1017.07 640.676 1022.96 601.252 z" fill="rgb(5,1,1)" transform="translate(0,0)"></path>
<path d="M 1024.26 619.752 L 1024.56 620.745 C 1026.82 628.259 1028.5 637.736 1030.14 645.528 C 1043.51 709.111 1070.54 727.792 1133.25 741.726 L 1133.13 742.48 C 1055.19 760.483 1038.95 781.102 1025.56 860.638 L 1024.17 860.837 C 1011.9 788.43 992.606 754.708 916.142 742.814 L 916.16 741.198 C 993.925 726.062 1011.29 694.603 1024.26 619.752 z" fill="rgb(242,176,115)" transform="translate(0,0)"></path>
<path d="M 1024.17 860.837 L 1025.56 860.638 C 1025.57 861.549 1025.89 863.346 1024.87 863.816 C 1023.97 863.274 1024.24 861.707 1024.17 860.837 z" fill="rgb(127,93,71)" transform="translate(0,0)"></path>
<path d="M 916.142 742.814 C 915.439 742.773 913.001 742.955 912.698 742.152 C 913.542 741.226 915.052 741.294 916.16 741.198 L 916.142 742.814 z" fill="rgb(127,93,71)" transform="translate(0,0)"></path>
<path d="M 1133.25 741.726 C 1134.02 741.734 1135.08 741.236 1135.6 741.995 C 1135.32 742.811 1133.53 742.489 1133.13 742.48 L 1133.25 741.726 z" fill="rgb(127,93,71)" transform="translate(0,0)"></path>
<path d="M 863.414 810.754 C 866.073 813.025 870.493 856.02 882.142 867.584 C 900.968 886.273 921.145 887.746 945.084 890.922 C 881.162 905.069 878.897 900.341 864.485 967.517 L 863.507 967.764 C 861.85 964.902 861.116 957.799 860.631 954.237 C 853.555 902.298 830.666 899.832 784.521 890.954 C 809.292 885.204 837.998 885.746 851.332 858.823 C 859.6 842.128 858.647 827.014 863.414 810.754 z" fill="rgb(5,1,1)" transform="translate(0,0)"></path>
<path d="M 863.579 829.78 C 865.601 831.925 870.22 855.309 876.373 864.52 C 888.899 883.272 904.854 886.028 925.106 891.071 C 880.168 901.865 876.173 908.194 864.185 951.769 C 860.205 940.449 859.232 929.46 852.473 918.009 C 841.441 899.317 822.019 895.727 802.711 890.92 C 847.541 880.706 852.562 872.809 863.579 829.78 z" fill="rgb(242,176,115)" transform="translate(0,0)"></path>
<path d="M 1184.42 812.541 C 1185.45 813.159 1185.83 813.712 1186.7 814.593 C 1187.65 828.436 1194.43 856.134 1202.77 867.176 C 1215.88 884.512 1246.82 888.33 1267.13 891.312 C 1202.37 902.075 1198.52 904.698 1186.21 969.516 C 1182.61 966.033 1179.8 928.542 1169.38 916.844 C 1151.4 896.672 1128.39 895.715 1104.37 891.302 C 1170.68 878.496 1171.65 878.534 1184.42 812.541 z" fill="rgb(5,1,1)" transform="translate(0,0)"></path>
<path d="M 1185.12 828.666 C 1189.49 840.749 1190.26 851.797 1197.46 864.069 C 1208.4 882.709 1227.2 886.153 1246.54 890.967 C 1201.3 902.511 1197.33 906.735 1186.01 951.471 C 1182.7 946.174 1180.42 927.922 1174.06 917.865 C 1162.31 899.258 1144.07 896.066 1124.37 890.971 C 1169.76 879.105 1174.66 874.839 1185.12 828.666 z" fill="rgb(242,176,115)" transform="translate(0,0)"></path>
<path d="M 676.144 916.656 C 679.471 919.668 682.696 957.151 693.729 968.146 C 711.597 985.951 731.728 987.431 754.574 989.964 C 693.94 1004.77 690.831 996.187 677.387 1063.81 C 673.069 1061.15 671.221 1015.05 654.03 1005.73 C 634.555 995.18 620.768 993.981 599.798 989.478 C 658.981 981.868 664.99 975.346 676.144 916.656 z" fill="rgb(5,1,1)" transform="translate(0,0)"></path>
<path d="M 676.365 934.726 C 679.346 939.06 681.984 958.084 689.694 967.976 C 701.807 983.517 716.973 986.979 735.25 989.921 C 694.675 1000.04 688.259 1004.58 677.034 1045.5 C 675.499 1042.37 673.029 1034.34 672.111 1030.82 C 663.909 999.378 648.138 997.393 619.411 989.993 C 661.043 982.653 665.512 972.922 676.365 934.726 z" fill="rgb(242,176,115)" transform="translate(0,0)"></path>
<path d="M 1370.27 916.602 C 1373.98 919.695 1377.26 955.386 1388.45 967.932 C 1403.64 984.971 1427.71 986.423 1448.94 989.209 C 1433.77 992.237 1416.87 994.675 1402.61 1000.77 C 1374.51 1012.79 1378.89 1042.19 1370.26 1064.79 C 1368.34 1061.2 1368.46 1048.85 1367.6 1043.95 C 1359.55 997.842 1331.12 997.024 1292.16 990.019 C 1350.95 981.2 1360.26 977.714 1370.27 916.602 z" fill="rgb(5,1,1)" transform="translate(0,0)"></path>
<path d="M 1370.71 933.793 C 1372.57 935.772 1376.8 955.85 1381.21 963.436 C 1392.68 983.15 1407.78 983.898 1427.45 989.735 C 1388.98 999.359 1381.26 1005.92 1371.61 1044.38 C 1368.37 1041.49 1365.07 1022.58 1361.3 1016.09 C 1351.3 998.903 1331.55 994.308 1313.7 989.838 C 1355.57 980.861 1359.78 973.385 1370.71 933.793 z" fill="rgb(242,176,115)" transform="translate(0,0)"></path>
<path d="M 726.212 773.661 C 728.553 776.508 728.711 778.985 730.303 782.401 C 740.005 803.218 747.569 810.34 768.114 818.672 C 743.493 828.799 733.518 839.968 727.33 865.803 C 718.203 840.116 713.333 828.412 685.158 819.634 C 711.018 805.523 717.06 802.411 726.212 773.661 z" fill="rgb(5,1,1)" transform="translate(0,0)"></path>
<path d="M 726.59 784.81 C 728.659 787.095 731.1 792.186 732.772 795.017 C 739.845 806.991 746.549 811.497 758.116 818.163 C 740.02 830.788 738.58 831.712 727.688 851.44 C 724.992 848.996 723.12 844.734 721.023 841.488 C 712.823 828.794 707.051 825.752 694.806 818.918 C 711.233 809.434 718.434 802.321 726.59 784.81 z" fill="rgb(242,176,115)" transform="translate(0,0)"></path>
<path d="M 1321.34 773.73 C 1323.72 776.765 1324.4 782.492 1326.19 786.421 C 1334.48 804.629 1345.71 811.414 1363.41 818.682 C 1337.24 828.309 1330.67 838.085 1321.68 863.284 C 1319.13 860.34 1318.34 852.911 1315.6 848.362 C 1306.54 833.34 1296.61 823.681 1279.53 819.141 C 1305.14 807.482 1310.41 801.297 1320.59 775.6 L 1321.34 773.73 z" fill="rgb(5,1,1)" transform="translate(0,0)"></path>
<path d="M 1321.6 784.861 C 1332.26 803.464 1332.96 807.052 1352.9 818.692 C 1336.02 828.578 1330.25 834.547 1321.63 852.258 C 1319.58 849.718 1316.85 843.912 1314.65 840.625 C 1307.24 829.58 1300.58 825.494 1290.13 818.572 C 1305.87 808.579 1312.54 801.436 1321.6 784.861 z" fill="rgb(242,176,115)" transform="translate(0,0)"></path>
<path d="M 835.834 672.498 C 838.921 675.276 839.346 683.755 842.255 688.953 C 851.263 705.052 860.696 711.829 877.839 717.413 C 851.904 726.715 844.664 736.505 836.738 762.482 C 833.487 759.697 832.989 750.587 828.614 743.622 C 819.188 728.614 811.424 723.733 795.166 718.812 C 799.432 716.792 803.235 715.197 807.399 712.795 C 821.21 704.791 831.165 691.505 834.968 676.002 C 835.263 674.832 835.53 673.675 835.834 672.498 z" fill="rgb(5,1,1)" transform="translate(0,0)"></path>
<path d="M 835.568 684.618 C 836.731 685.698 837.075 686.056 837.809 687.554 C 845.351 702.934 852.142 708.886 866.527 717.297 L 865.887 717.704 C 850.703 727.197 843.756 734.868 836.701 751.34 C 834.706 749.142 833.004 744.404 831.266 741.392 C 824.146 729.055 816.951 724.696 805.103 718.138 C 821.13 707.999 827.635 702.749 835.568 684.618 z" fill="rgb(242,176,115)" transform="translate(0,0)"></path>
<path d="M 1211.99 672.545 C 1216.08 675.919 1213.42 680.686 1217.45 687.595 C 1227.56 704.955 1235.37 711.444 1253.39 717.57 C 1228.02 730.021 1220.54 734.812 1213.72 762.692 C 1212 761.842 1211.3 761.649 1211 759.532 C 1210.37 755.005 1208.99 750.615 1206.9 746.548 C 1202.21 737.259 1189.77 724.043 1179.98 721.241 L 1172.39 719.04 C 1197.85 705.825 1204.42 699.747 1211.99 672.545 z" fill="rgb(5,1,1)" transform="translate(0,0)"></path>
<path d="M 1211.69 685.604 C 1213.92 687.676 1216.34 692.515 1218.21 695.387 C 1225.77 706.939 1231.91 711.006 1242.9 718.366 C 1228.26 727.908 1220.23 733.102 1213.1 750.18 C 1211.84 749.933 1211.37 749.382 1210.93 748.068 C 1205.93 733.401 1194.24 726.443 1182.53 717.661 C 1198.81 707.342 1203.8 703.347 1211.69 685.604 z" fill="rgb(242,176,115)" transform="translate(0,0)"></path>
<path d="M 1022.62 916.984 C 1023.21 914.821 1022.69 915.835 1024.28 914.001 L 1024.76 915.657 C 1029.38 919.192 1041.02 942.576 1045.13 949.275 C 1107.23 1050.46 1219.33 1117.34 1340.73 1116.09 C 1338.38 1128.29 1335.44 1141.72 1334.23 1153.99 C 1230.95 1153.48 1128.24 1156 1024.93 1154.09 C 1025.06 1126.58 1025.02 1099.06 1024.8 1071.55 C 1019.09 1047.93 1028.27 927.52 1022.62 916.984 z" fill="rgb(59,13,30)" transform="translate(0,0)"></path>
<path d="M 1022.62 916.984 C 1023.21 914.821 1022.69 915.835 1024.28 914.001 L 1024.76 915.657 C 1025 948.509 1025.05 981.363 1024.93 1014.22 C 1024.93 1031.6 1025.67 1054.63 1024.8 1071.55 C 1019.09 1047.93 1028.27 927.52 1022.62 916.984 z" fill="rgb(150,129,120)" transform="translate(0,0)"></path>
<path d="M 1022.62 916.984 C 1028.27 927.52 1019.09 1047.93 1024.8 1071.55 C 1025.02 1099.06 1025.06 1126.58 1024.93 1154.09 C 991.736 1153.19 956.41 1153.7 923.085 1153.64 L 725.311 1153.88 C 721.821 1142.52 718.417 1127.74 715.368 1116.01 C 845.116 1109.2 968.385 1038.12 1022.62 916.984 z" fill="rgb(165,164,139)" transform="translate(0,0)"></path>
<path d="M 1190.26 1157.51 L 1225.41 1157.08 C 1224.87 1188.37 1225.44 1221.55 1225.49 1252.94 L 1225.72 1442.16 C 1216.39 1447.2 1205.37 1451.91 1195.62 1456.34 C 1187.34 1459.94 1179.29 1462.66 1170.77 1465.62 C 1169.72 1424.57 1170.65 1382.36 1170.83 1341.25 L 1170.86 1157.76 L 1190.26 1157.51 z" fill="rgb(179,79,46)" transform="translate(0,0)"></path>
<metadata><recraft-signature>{"signed_by": "recraft", "signature_b64": "etsLRdfyWtRaYabLuOe9eIuG30dkd/vv6Frjx3jp25XWIDJGgHPCbeUiJe7q7sEISr6lFXCEjTy6D15t3pFxCA==", "signing_algo": "Ed25519", "generation_timestamp": 1784769336, "identifier": "27e4c370-8ae7-45fa-94ca-75d78ef59b92"}</recraft-signature></metadata></svg>